<?xml version="1.0" encoding="UTF-8" standalone="no"?>
<!DOCTYPE svg PUBLIC "-//W3C//DTD SVG 1.1//EN" "http://www.w3.org/Graphics/SVG/1.1/DTD/svg11.dtd">
<!-- Created with Vectornator (http://vectornator.io/) -->
<svg height="100%" stroke-miterlimit="10" style="fill-rule:nonzero;clip-rule:evenodd;stroke-linecap:round;stroke-linejoin:round;" version="1.1" viewBox="0 0 1024 1024" width="100%" xml:space="preserve" xmlns="http://www.w3.org/2000/svg" xmlns:vectornator="http://vectornator.io" xmlns:xlink="http://www.w3.org/1999/xlink">
<defs/>
<g id="Layer-1" vectornator:layerName="Layer 1">
<path d="M1023.84 509.219C1023.66 510.781 1022.31 512 1020.62 512C1022.31 512 1023.66 513.219 1023.84 514.781C1023.85 513.85 1023.91 512.933 1023.91 512C1023.91 511.067 1023.85 510.15 1023.84 509.219Z" fill="#f8e55d" fill-rule="nonzero" opacity="1" stroke="#000000" stroke-linecap="round" stroke-linejoin="round" stroke-width="0"/>
<path d="M511.906 1020.78C511.906 1022.39 510.63 1023.66 509 1023.84C510.005 1023.85 510.994 1023.91 512 1023.91C512.807 1023.91 513.6 1023.85 514.406 1023.84C512.98 1023.5 511.906 1022.34 511.906 1020.88L511.906 1020.78Z" fill="#f8e55d" fill-rule="nonzero" opacity="1" stroke="#000000" stroke-linecap="round" stroke-linejoin="round" stroke-width="0"/>
<path d="M0.15625 509.625C0.152615 510.421 0.09375 511.203 0.09375 512C0.09375 512.608 0.154132 513.205 0.15625 513.812C0.63057 512.742 1.7247 512.009 3 511.938C1.5983 511.818 0.493135 510.894 0.15625 509.625Z" fill="#f8e55d" fill-rule="nonzero" opacity="1" stroke="#000000" stroke-linecap="round" stroke-linejoin="round" stroke-width="0"/>
<path d="M511.969 509.094C511.851 510.656 510.549 511.876 508.906 511.969C510.581 512.112 511.906 513.396 511.906 515.031L511.906 515.125C511.906 513.394 513.374 512 515.188 512C513.457 512 512.094 510.715 511.969 509.094Z" fill="#f8e55d" fill-rule="nonzero" opacity="1" stroke="#000000" stroke-linecap="round" stroke-linejoin="round" stroke-width="0"/>
<g opacity="1">
<path d="M362.314 227.698C470.256 229.052 557.073 329.587 556.861 452.995C556.719 453.591 556.244 454.034 555.654 454.03L361.342 452.647C360.645 452.642 360.084 452.026 360.089 451.265L361.358 228.996C361.362 228.356 361.771 227.849 362.314 227.698Z" fill="#bae8e8" fill-rule="nonzero" opacity="1" stroke="none"/>
<path d="M382.587 480.24C381.933 480.191 381.37 480.6 381.329 481.156L369.317 643.633L369.315 643.663C369.28 644.134 369.64 644.536 370.146 644.683C471.41 651.75 558.775 584.828 565.983 494.697C565.953 494.19 565.496 493.763 564.888 493.718L382.587 480.24Z" fill="#e3f6f5" fill-rule="nonzero" opacity="1" stroke="none"/>
<path d="M358.569 227.255C359.413 227.468 360.028 228.17 360.094 229.069C360.09 229.119 360.074 229.163 360.074 229.214L360.074 562.924C360.074 562.975 360.09 563.019 360.094 563.069C360.015 564.139 359.163 564.986 358.08 564.986L41.8768 564.986C40.8218 564.986 39.98 564.182 39.8632 563.151C40.8022 377.984 182.978 228.112 358.569 227.255Z" fill="#ffd803" fill-rule="nonzero" opacity="1" stroke="none"/>
<path d="M4.98431 488.774C4.07909 488.817 3.32178 489.268 3 489.917C3.70683 655.691 162.191 789.977 358.061 790.933C359.198 790.824 360.088 790.073 360.088 789.125L360.088 490.6C360.089 489.634 359.164 488.876 357.995 488.792C357.95 488.794 357.91 488.81 357.864 488.81L5.18056 488.81C5.11076 488.81 5.05252 488.778 4.98431 488.774Z" fill="#000000" fill-rule="nonzero" opacity="1" stroke="none"/>
</g>
</g>
<g id="Layer-2" vectornator:layerName="Layer 2">
<g fill="#000000" opacity="1" stroke="none">
<path d="M382.765 657.63L427.576 657.63C433.977 657.63 440.159 658.258 446.121 659.513C452.084 660.768 457.324 662.87 461.843 665.82C466.362 668.77 469.97 672.724 472.669 677.682C475.368 682.64 476.717 688.822 476.717 696.228C476.717 704.637 475.274 711.416 472.387 716.562C469.5 721.708 465.608 725.693 460.713 728.518C455.818 731.342 450.138 733.256 443.674 734.26C437.209 735.264 430.463 735.767 423.434 735.767L406.488 735.767L406.488 790.933L382.765 790.933L382.765 657.63ZM420.798 715.432C424.187 715.432 427.701 715.307 431.341 715.056C434.981 714.805 438.339 714.051 441.414 712.796C444.49 711.541 447 709.658 448.946 707.148C450.891 704.637 451.864 701.123 451.864 696.604C451.864 692.462 450.985 689.167 449.228 686.719C447.471 684.272 445.211 682.389 442.45 681.071C439.688 679.753 436.613 678.906 433.224 678.529C429.835 678.153 426.572 677.964 423.434 677.964L406.488 677.964L406.488 715.432L420.798 715.432Z" fill="#000000"/>
<path d="M495.733 700.558L518.327 700.558L518.327 714.867L518.704 714.867C521.214 709.595 524.791 705.516 529.436 702.629C534.08 699.742 539.415 698.299 545.44 698.299C546.82 698.299 548.17 698.424 549.488 698.675C550.806 698.926 552.155 699.24 553.536 699.617L553.536 721.457C551.653 720.955 549.801 720.547 547.981 720.233C546.161 719.92 544.373 719.763 542.615 719.763C537.344 719.763 533.107 720.735 529.906 722.681C526.706 724.627 524.258 726.855 522.563 729.365C520.869 731.875 519.739 734.386 519.174 736.896C518.61 739.407 518.327 741.289 518.327 742.545L518.327 790.933L495.733 790.933L495.733 700.558Z" fill="#000000"/>
<path d="M561.067 745.745C561.067 738.591 562.354 732.095 564.927 726.258C567.5 720.422 570.983 715.432 575.376 711.29C579.77 707.148 584.979 703.947 591.004 701.688C597.029 699.428 603.43 698.299 610.208 698.299C616.986 698.299 623.388 699.428 629.413 701.688C635.438 703.947 640.647 707.148 645.04 711.29C649.434 715.432 652.917 720.422 655.49 726.258C658.063 732.095 659.35 738.591 659.35 745.745C659.35 752.9 658.063 759.396 655.49 765.233C652.917 771.069 649.434 776.059 645.04 780.201C640.647 784.343 635.438 787.544 629.413 789.803C623.388 792.063 616.986 793.192 610.208 793.192C603.43 793.192 597.029 792.063 591.004 789.803C584.979 787.544 579.77 784.343 575.376 780.201C570.983 776.059 567.5 771.069 564.927 765.233C562.354 759.396 561.067 752.9 561.067 745.745ZM583.661 745.745C583.661 749.26 584.257 752.649 585.449 755.913C586.642 759.176 588.399 762.063 590.721 764.574C593.043 767.084 595.836 769.092 599.1 770.599C602.363 772.105 606.066 772.858 610.208 772.858C614.35 772.858 618.053 772.105 621.317 770.599C624.58 769.092 627.373 767.084 629.695 764.574C632.018 762.063 633.775 759.176 634.967 755.913C636.16 752.649 636.756 749.26 636.756 745.745C636.756 742.231 636.16 738.842 634.967 735.578C633.775 732.315 632.018 729.428 629.695 726.917C627.373 724.407 624.58 722.399 621.317 720.892C618.053 719.386 614.35 718.633 610.208 718.633C606.066 718.633 602.363 719.386 599.1 720.892C595.836 722.399 593.043 724.407 590.721 726.917C588.399 729.428 586.642 732.315 585.449 735.578C584.257 738.842 583.661 742.231 583.661 745.745Z" fill="#000000"/>
<path d="M774.013 688.885C769.117 683.613 764.379 680.098 759.798 678.341C755.216 676.584 750.603 675.705 745.959 675.705C739.055 675.705 732.811 676.929 727.225 679.376C721.639 681.824 716.838 685.213 712.821 689.544C708.805 693.874 705.698 698.926 703.502 704.7C701.305 710.474 700.207 716.687 700.207 723.34C700.207 730.495 701.305 737.085 703.502 743.109C705.698 749.134 708.805 754.344 712.821 758.737C716.838 763.13 721.639 766.582 727.225 769.092C732.811 771.603 739.055 772.858 745.959 772.858C751.356 772.858 756.597 771.571 761.68 768.998C766.764 766.425 771.502 762.314 775.896 756.666L795.477 770.599C789.452 778.883 782.109 784.908 773.448 788.674C764.787 792.439 755.561 794.322 745.771 794.322C735.478 794.322 726.033 792.659 717.434 789.332C708.836 786.006 701.43 781.299 695.217 775.211C689.004 769.124 684.14 761.812 680.625 753.277C677.111 744.741 675.354 735.264 675.354 724.846C675.354 714.177 677.111 704.481 680.625 695.757C684.14 687.033 689.004 679.596 695.217 673.446C701.43 667.295 708.836 662.557 717.434 659.23C726.033 655.904 735.478 654.241 745.771 654.241C754.808 654.241 763.187 655.841 770.906 659.042C778.626 662.243 785.812 667.672 792.464 675.328L774.013 688.885Z" fill="#000000"/>
<path d="M804.891 745.745C804.891 738.591 806.177 732.095 808.751 726.258C811.324 720.422 814.807 715.432 819.2 711.29C823.593 707.148 828.803 703.947 834.828 701.688C840.853 699.428 847.254 698.299 854.032 698.299C860.81 698.299 867.212 699.428 873.237 701.688C879.262 703.947 884.471 707.148 888.864 711.29C893.257 715.432 896.741 720.422 899.314 726.258C901.887 732.095 903.174 738.591 903.174 745.745C903.174 752.9 901.887 759.396 899.314 765.233C896.741 771.069 893.257 776.059 888.864 780.201C884.471 784.343 879.262 787.544 873.237 789.803C867.212 792.063 860.81 793.192 854.032 793.192C847.254 793.192 840.853 792.063 834.828 789.803C828.803 787.544 823.593 784.343 819.2 780.201C814.807 776.059 811.324 771.069 808.751 765.233C806.177 759.396 804.891 752.9 804.891 745.745ZM827.485 745.745C827.485 749.26 828.081 752.649 829.273 755.913C830.466 759.176 832.223 762.063 834.545 764.574C836.867 767.084 839.66 769.092 842.924 770.599C846.187 772.105 849.89 772.858 854.032 772.858C858.174 772.858 861.877 772.105 865.141 770.599C868.404 769.092 871.197 767.084 873.519 764.574C875.841 762.063 877.599 759.176 878.791 755.913C879.984 752.649 880.58 749.26 880.58 745.745C880.58 742.231 879.984 738.842 878.791 735.578C877.599 732.315 875.841 729.428 873.519 726.917C871.197 724.407 868.404 722.399 865.141 720.892C861.877 719.386 858.174 718.633 854.032 718.633C849.89 718.633 846.187 719.386 842.924 720.892C839.66 722.399 836.867 724.407 834.545 726.917C832.223 729.428 830.466 732.315 829.273 735.578C828.081 738.842 827.485 742.231 827.485 745.745Z" fill="#000000"/>
<path d="M924.261 700.558L945.725 700.558L945.725 715.056L946.102 715.056C948.236 710.537 951.499 706.614 955.892 703.288C960.286 699.962 966.248 698.299 973.779 698.299C979.804 698.299 984.919 699.303 989.124 701.311C993.329 703.319 996.749 705.955 999.385 709.219C1002.02 712.482 1003.9 716.248 1005.03 720.516C1006.16 724.783 1006.73 729.239 1006.73 733.884L1006.73 790.933L984.134 790.933L984.134 745.181C984.134 742.67 984.009 739.877 983.758 736.802C983.507 733.727 982.848 730.84 981.781 728.141C980.714 725.442 979.051 723.183 976.791 721.363C974.532 719.543 971.457 718.633 967.566 718.633C963.8 718.633 960.631 719.261 958.058 720.516C955.484 721.771 953.35 723.466 951.656 725.599C949.961 727.733 948.738 730.181 947.984 732.942C947.231 735.704 946.855 738.591 946.855 741.603L946.855 790.933L924.261 790.933L924.261 700.558Z" fill="#000000"/>
</g>
</g>
</svg>
